<?xml version="1.0" encoding="UTF-8" standalone="no"?>
<svg
   xmlns:dc="http://purl.org/dc/elements/1.1/"
   xmlns:cc="http://creativecommons.org/ns#"
   xmlns:rdf="http://www.w3.org/1999/02/22-rdf-syntax-ns#"
   xmlns:svg="http://www.w3.org/2000/svg"
   xmlns="http://www.w3.org/2000/svg"
   xmlns:sodipodi="http://sodipodi.sourceforge.net/DTD/sodipodi-0.dtd"
   xmlns:inkscape="http://www.inkscape.org/namespaces/inkscape"
   style="enable-background:new 0 0 500 500;"
   version="1.1"
   viewBox="0 0 500 500"
   xml:space="preserve"
   id="svg24"
   sodipodi:docname="webobserver.svg"
   inkscape:export-filename="/home/john/WWW/dolibarr/htdocs/custom/webobserver/img/object_webobserver_over.png"
   inkscape:export-xdpi="3.072"
   inkscape:export-ydpi="3.072"
   inkscape:version="0.92.5 (2060ec1f9f, 2020-04-08)"><metadata
     id="metadata30"><rdf:RDF><cc:Work
         rdf:about=""><dc:format>image/svg+xml</dc:format><dc:type
           rdf:resource="http://purl.org/dc/dcmitype/StillImage" /><dc:title /></cc:Work></rdf:RDF></metadata><defs
     id="defs28" /><sodipodi:namedview
     pagecolor="#ffffff"
     bordercolor="#666666"
     borderopacity="1"
     objecttolerance="10"
     gridtolerance="10"
     guidetolerance="10"
     inkscape:pageopacity="0"
     inkscape:pageshadow="2"
     inkscape:window-width="1920"
     inkscape:window-height="1011"
     id="namedview26"
     showgrid="false"
     inkscape:zoom="1.1638068"
     inkscape:cx="51.688312"
     inkscape:cy="246.21241"
     inkscape:window-x="0"
     inkscape:window-y="0"
     inkscape:window-maximized="1"
     inkscape:current-layer="svg24" /><path
     style="fill:none;fill-opacity:1;stroke:#675f58;stroke-width:18.67773438;stroke-linejoin:round;stroke-miterlimit:0;stroke-dasharray:none;stroke-dashoffset:0;stroke-opacity:1"
     d="m 489.25995,279.17296 c 0,0 -101.19015,126.2069 -238.96033,126.33111 -131.97415,0 -238.960336,-126.33111 -238.960336,-126.33111 0,0 106.986186,-126.33111 238.960336,-126.33111 133.28425,1.25154 238.96033,126.33111 238.96033,126.33111 z"
     id="path822"
     inkscape:connector-curvature="0"
     sodipodi:nodetypes="ccccc" /><circle
     style="fill:#ffffff;fill-opacity:1;stroke:#675f58;stroke-width:12.6;stroke-miterlimit:0;stroke-dasharray:none;stroke-opacity:1"
     id="path821"
     cx="252.86319"
     cy="280.37442"
     r="125.41318" /><path
     inkscape:connector-curvature="0"
     style="fill:#675f58;stroke-width:1.14207864"
     id="icon_1_"
     d="m 252.68269,153.31914 c -70.11563,0 -126.92263,56.8344 -126.92263,126.93747 0,70.07909 56.807,126.91007 126.92263,126.91007 70.06653,0 126.87352,-56.83098 126.87352,-126.91007 0,-70.10193 -56.80699,-126.93747 -126.87352,-126.93747 z m -13.10763,40.51409 h 6.16836 v -7.32986 h -4.25652 -1.15921 v -18.8797 h 7.72045 v -9.6597 l 0.44313,-1.01988 c 1.3625,-0.0525 2.74784,-0.13933 4.19142,-0.13933 6.14439,0 12.20654,0.47739 18.11794,1.36593 v 6.3511 h 8.8671 v 10.02859 14.0784 h -6.74169 l -5.83031,5.79262 -14.03386,14.08983 -7.3173,7.331 -6.16837,-6.17179 v -15.83721 z m -23.70042,-31.39003 2.28644,2.27731 -4.06123,4.06123 h -6.94041 v 6.90843 h 9.65741 4.98175 v 32.02846 h -11.17752 v -23.15451 h -7.73644 v -11.15925 h -5.00002 v 6.53726 l -4.81158,4.83328 h -11.36939 l -3.14415,-3.14186 c 11.11243,-8.384 23.69928,-14.94638 37.31514,-19.19035 z m 40.28112,179.13161 h -10.41234 l -5.41573,7.73302 v 17.33675 l -15.82807,11.57497 v 20.82467 l -17.73991,-16.16499 v -42.48076 l -18.91282,-17.73305 v -21.57615 l -13.08366,-9.64029 h -11.6058 l -8.27207,-8.32232 v -11.37625 l -5.57906,-3.45136 -1.57721,4.23825 2.72272,1.53724 v 9.66541 l -6.94613,-8.49478 -3.46735,-13.52678 -3.1133,-0.76862 v -23.57022 c 6.1992,-16.61839 15.82235,-31.56363 28.09285,-43.90607 l 38.63309,0.35975 -1.50183,8.11676 -11.58982,0.74349 1.15236,3.86023 2.72043,3.11673 -3.1133,4.9886 -9.2417,-1.12152 5.40888,7.32414 9.22,6.53041 3.11331,7.33557 3.83167,-1.15235 v -18.91625 h 10.44774 v 2.33555 h 10.7995 v 13.11678 h -4.62885 v 5.38489 h -4.63455 v 3.4822 h 6.54639 l -4.22226,4.23255 -1.74739,-1.72911 -4.07379,4.02696 v 3.48791 l -3.64323,3.66151 -4.60714,4.63455 -5.43402,5.40318 -3.63067,3.68092 v 11.56812 h -5.06283 v -6.19578 h -16.54986 v 6.98381 l 16.20267,15.41578 h 32.38478 v 3.07333 h 11.5841 l 12.73875,16.19696 h 10.0343 v 28.15566 z m 98.34325,-71.76365 v 10.056 h -16.57499 l -8.12931,-8.11675 v -5.37234 h -4.78874 v 7.52173 l 10.9788,10.97995 h 12.54688 v 9.05896 l -11.40709,11.3831 v 16.60583 15.40892 h -8.64896 v 16.4014 l -6.75425,6.72912 h -15.8806 v -14.57407 l -8.56902,-8.55645 v -26.83542 l -10.66359,-10.66359 h -22.29337 l -8.75861,-8.76774 v -22.22599 l 7.55029,-7.47262 h 12.68849 l 8.11675,-8.11675 h 4.25082 5.41574 v 4.25081 h 29.66778 v -5.2113 h -7.48519 l 4.41756,-4.44269 4.25767,-4.22569 h 7.27961 l -4.59115,-4.61058 h -6.90273 l -7.28075,7.29903 v 5.67613 l -7.78783,-7.80724 h -4.84585 l 7.12543,7.1437 h -5.76864 l -4.64026,-4.64141 v -3.09846 l -6.94612,-6.95184 -5.19303,5.21702 -4.43584,4.46096 v 8.07336 h -8.89222 v -3.81112 -12.36757 h 3.2652 v -2.89974 l 2.12541,-2.13797 -3.81683,-3.84767 -5.04456,5.01944 -4.05894,-4.0658 2.16195,-2.10599 v -3.84195 -7.73302 h 8.08591 v 4.63456 l 6.89702,6.94041 h 5.06854 v -5.41574 h 15.42264 v -5.39061 h 6.15351 v -7.69533 h -6.5384 v -7.33557 h -3.47534 v 14.65972 l -2.70787,2.70216 -5.39746,-2.32984 -9.25084,-2.31727 0.72522,-8.83627 9.30565,-6.95868 5.37805,-9.2634 10.0503,-2.32299 -1.16492,4.62884 6.54867,1.14551 -0.37803,4.63455 7.32416,-0.76862 3.4822,-2.30471 0.75605,-3.86023 h 15.46603 c 23.4583,22.46012 38.13172,54.10484 38.13172,89.11298 0,1.88328 -0.0434,3.73002 -0.14276,5.62016 l -26.83542,-26.83542 -2.70787,2.67703 z" /><g
     id="g17"
     transform="matrix(1.8349242,0,0,1.8349242,-208.12655,-208.3777)"><g
       id="g9"><rect
         id="rect5"
         y="363.56799"
         x="209.261"
         width="81.483002"
         style="fill:#ff931e"
         height="18.382" /><rect
         id="rect7"
         y="344.569"
         x="244.48"
         width="11.041"
         style="fill:#ff931e"
         height="27.582001" /></g><g
       id="g15"><rect
         id="rect11"
         y="369.32501"
         x="138.88901"
         width="65.323997"
         style="fill:#ff931e"
         height="6.0650001" /><rect
         id="rect13"
         y="369.32501"
         x="295.80099"
         width="65.310997"
         style="fill:#ff931e"
         height="6.0650001" /></g></g><g
     id="Layer_1" /></svg>